<?xml version="1.0" encoding="utf-8"?>
<!-- Generator: Moho 14.2 build 20240604 -->
<!DOCTYPE svg PUBLIC "-//W3C//DTD SVG 1.1//EN" "http://www.w3.org/Graphics/SVG/1.1/DTD/svg11.dtd">
<svg version="1.1" id="Frame_1" xmlns="http://www.w3.org/2000/svg" xmlns:xlink="http://www.w3.org/1999/xlink" width="1280px" height="720px">
<g id="Layer_5">
<path id="S1" fill="none" stroke="#ffffff" stroke-width="11" stroke-linecap="round" stroke-linejoin="round" d="M 841.709 367.540 C 852.704 370.560 860.096 373.692 862.725 376.855 C 880.009 397.620 860.981 668.707 840.987 686.859 C 816.134 709.442 476.650 685.648 455.163 659.804 C 441.839 643.726 450.173 477.878 463.886 395.192 C 457.862 393.726 453.663 392.024 451.655 390.075 C 432.318 371.244 422.368 99.691 440.319 79.516 C 462.669 54.416 802.721 41.993 826.833 65.407 C 844.787 82.825 854.600 316.917 841.709 367.540 "/>
<path id="S1_2_2_6_5_2_3" fill="#ffffff" fill-rule="evenodd" stroke="none" d="M 861.912 525.722 C 857.319 598.813 847.772 673.622 837.694 682.804 C 829.766 690.038 789.103 692.484 737.144 691.619 C 738.759 702.088 740.597 709.583 742.458 711.285 C 750.647 718.693 862.147 713.764 869.406 705.491 C 872.192 702.330 872.657 683.186 871.709 661.138 C 884.928 658.285 894.698 655.347 896.494 653.004 C 903.231 644.255 889.560 533.520 880.685 526.910 C 878.759 525.466 871.696 525.191 861.912 525.722 M 463.388 439.629 C 465.424 422.403 467.674 406.372 470.057 392.585 C 462.599 390.962 457.459 389.050 455.191 386.833 C 447.432 379.210 441.220 329.694 437.821 272.670 C 421.922 272.562 409.535 273.404 407.006 275.565 C 398.618 282.748 389.376 393.918 396.635 402.222 C 399.182 405.119 415.260 407.783 434.831 409.636 C 435.980 422.999 437.634 432.969 439.695 435.042 C 441.739 437.079 450.873 438.614 463.388 439.629 M 932.468 673.337 C 930.134 670.611 894.017 667.613 891.307 669.967 C 888.782 672.187 886.862 706.000 888.988 708.584 C 891.322 711.310 927.500 714.309 930.149 711.954 C 932.674 709.735 934.685 675.891 932.468 673.337 M 402.017 484.119 C 403.929 486.035 431.183 486.959 433.152 485.101 C 435.487 482.920 435.545 450.563 433.247 448.320 C 431.335 446.404 404.122 445.481 402.114 447.338 C 399.778 449.520 399.779 481.857 402.017 484.119 M 823.940 69.747 C 815.858 61.848 771.399 57.969 715.531 57.270 C 717.521 37.530 720.278 21.614 723.219 18.982 C 730.996 12.049 835.178 15.899 842.177 23.516 C 844.774 26.342 845.646 41.578 845.333 60.584 C 861.524 61.914 874.074 63.934 876.287 66.467 C 882.188 73.221 875.257 163.092 868.690 169.171 C 866.391 171.307 855.125 172.525 840.365 172.967 C 837.022 120.625 831.245 76.876 823.940 69.747 M 692.709 57.158 C 680.966 57.185 668.896 57.335 656.703 57.603 C 656.290 57.465 655.999 57.316 655.849 57.156 C 654.018 55.194 654.916 27.934 656.831 26.022 C 659.126 23.764 691.431 23.782 693.612 26.118 C 695.482 28.053 694.572 54.594 692.709 57.158 M 859.398 6.280 C 856.682 8.886 855.681 46.914 858.314 49.587 C 860.789 52.099 896.386 52.144 898.894 49.720 C 901.610 47.114 902.647 9.087 899.978 6.414 C 897.503 3.902 861.960 3.838 859.398 6.280 Z"/>
</g>
</svg>
