<svg width="100" height="100" viewBox="0 0 100 100" fill="none" xmlns="http://www.w3.org/2000/svg">
<g clip-path="url(#clip0_51_20)">
<path fill-rule="evenodd" clip-rule="evenodd" d="M26.0557 54.5268C38.4133 54.5277 50.7718 54.5274 63.1297 54.5269C67.6908 54.5268 72.2518 54.5268 76.8127 54.5266C80.5221 41.8695 84.2319 29.2115 87.937 16.5573C65.8878 14.0385 43.8347 11.5188 21.7827 9C23.2067 24.1736 24.6318 39.3515 26.0557 54.5268Z" fill="white"/>
<path fill-rule="evenodd" clip-rule="evenodd" d="M0 64.8245C0.00284758 64.825 27.397 69.8983 27.3997 69.8988C27.4042 69.8989 71.8652 70.7819 71.8695 70.7821C71.8724 70.7819 100.299 69.4917 100.301 69.4916C100.3 69.4938 83.6254 91.9977 83.6237 92C83.6167 91.9995 13.1206 87.7216 13.1135 87.7212C13.1123 87.7189 0.00134885 64.8268 0 64.8245Z" fill="white"/>
</g>
<defs>
<clipPath id="clip0_51_20">
<rect width="100" height="100" fill="white"/>
</clipPath>
</defs>
</svg>
