<svg width="100" height="100" viewBox="0 0 100 100" fill="none" xmlns="http://www.w3.org/2000/svg">
<g clip-path="url(#clip0_52_41)">
<path d="M2.39011 91.0603C-2.86726 83.5922 1.31375 8.97264 7.53458 2.28798L11.1933 6.63568C6.81216 9.69035 2.67381 83.5595 6.59897 87.2947L2.39011 91.0603Z" fill="white"/>
<path d="M7.53455 2.28799C15.0687 -3.63076 91.2973 3.01236 97.894 9.97229L93.6852 13.7379C90.4794 8.73818 14.9769 2.15758 11.1933 6.63568L7.53455 2.28799Z" fill="white"/>
<path d="M7.53455 2.28798L11.1933 6.63568" stroke="white" stroke-linejoin="round"/>
<path d="M97.8941 9.97231C103.151 17.4402 97.5957 91.8805 91.8348 97.6576L90.0052 95.4837C94.8465 91.5216 97.6104 17.473 93.6852 13.7379L97.8941 9.97231Z" fill="white"/>
<path d="M97.894 9.97231L93.6852 13.7379" stroke="white" stroke-linejoin="round"/>
<path d="M91.8348 97.6576C85.2382 103.216 8.98692 98.0201 2.39014 91.0603L6.599 87.2947C9.80464 92.2943 85.2842 100.322 90.0053 95.4837L91.8348 97.6576Z" fill="white"/>
<path d="M91.8348 97.6576L90.0052 95.4837" stroke="white" stroke-linejoin="round"/>
</g>
<defs>
<clipPath id="clip0_52_41">
<rect width="100" height="100" fill="white"/>
</clipPath>
</defs>
</svg>
