<svg width="100" height="100" viewBox="0 0 100 100" fill="none" xmlns="http://www.w3.org/2000/svg">
<path fill-rule="evenodd" clip-rule="evenodd" d="M5.70634 10.7967C5.70909 10.7963 32.5975 6.00048 32.6001 6C32.6035 6.00613 65.1698 66.9629 65.1731 66.969C65.1764 66.9671 98.6844 48.8029 98.6877 48.8011C98.6861 48.8055 81.8107 92.9955 81.8089 93C81.8052 93 44.2303 92.4885 44.2266 92.4885C44.2247 92.4862 24.8005 70.3164 24.7985 70.3141C24.7961 70.3151 1.00242 79.2886 1 79.2895C1.00048 79.2826 5.70586 10.8035 5.70634 10.7967Z" fill="white"/>
<path fill-rule="evenodd" clip-rule="evenodd" d="M66.5132 10.4369C66.5122 10.4392 55.7577 34.0279 55.7565 34.0303C55.7552 34.028 42.7042 10.522 42.7029 10.5196C42.7053 10.5196 66.5109 10.4369 66.5132 10.4369Z" fill="white"/>
<path fill-rule="evenodd" clip-rule="evenodd" d="M71.5608 39.9127C71.5605 39.9145 67.5546 56.8705 67.5541 56.8721C67.5531 56.8703 58.4591 38.4843 58.4583 38.4826C58.4595 38.4827 71.5595 39.9126 71.5608 39.9127Z" fill="white"/>
</svg>
