<svg width="100" height="100" viewBox="0 0 100 100" fill="none" xmlns="http://www.w3.org/2000/svg">
<path fill-rule="evenodd" clip-rule="evenodd" d="M34.6057 92.8149C34.6096 92.8149 73.0758 93 73.0795 93C73.0821 92.9924 98.9331 16.0243 98.9356 16.0167C98.9321 16.0157 63.161 6.00102 63.1574 6C63.1562 6.00119 51.3679 18.5694 51.3667 18.5708C51.3681 18.574 64.3972 50.5518 64.3984 50.555C64.3974 50.5564 53.8034 63.9428 53.8024 63.944C53.8012 63.9428 42.4857 52.1223 42.4845 52.1211C42.4852 52.1177 49.7828 18.7871 49.7837 18.7839C49.7823 18.7827 37.5261 6.77115 37.5248 6.76997C37.521 6.77082 0.00374978 14.9742 0 14.975C0.00357934 14.9826 34.6023 92.8073 34.6057 92.8149Z" fill="white"/>
</svg>
