<?xml version="1.0" encoding="utf-8"?>
<!-- Generator: Moho 14.2 build 20240604 -->
<!DOCTYPE svg PUBLIC "-//W3C//DTD SVG 1.1//EN" "http://www.w3.org/Graphics/SVG/1.1/DTD/svg11.dtd">
<svg version="1.1" id="Frame_1" xmlns="http://www.w3.org/2000/svg" xmlns:xlink="http://www.w3.org/1999/xlink" width="1280px" height="720px">
<g id="Layer_1">
<path id="S1" fill="#ffdd93" fill-rule="evenodd" stroke="none" d="M -33.092 -15.749 C -32.957 -15.749 1317.822 -15.749 1317.957 -15.749 C 1317.957 -15.672 1317.957 751.391 1317.957 751.467 C 1317.822 751.467 -32.957 751.467 -33.092 751.467 C -33.092 751.391 -33.092 -15.672 -33.092 -15.749 Z"/>
</g>
<g id="Layer_4">
<path id="S1" fill="#fbd579" fill-rule="evenodd" stroke="none" d="M 384.901 800.145 C 384.953 800.189 909.040 1243.630 909.092 1243.674 C 909.179 1243.636 1776.423 860.372 1776.510 860.334 C 1776.468 860.251 1361.552 35.868 1361.511 35.785 C 1361.504 35.803 1347.651 165.226 1293.663 215.723 C 1240.235 265.696 1175.356 235.208 1111.562 271.016 C 1049.177 306.034 1036.989 363.697 972.533 394.738 C 929.375 415.522 893.348 397.700 850.212 418.531 C 780.088 452.395 766.798 514.528 699.817 554.248 C 630.000 595.650 564.344 573.640 500.377 623.608 C 436.473 673.527 384.912 800.127 384.901 800.145 Z"/>
<path id="S1_2" fill="#ffe5a6" fill-rule="evenodd" stroke="none" d="M 1146.575 -72.319 C 1146.509 -72.356 491.026 -441.205 490.961 -441.242 C 490.865 -441.192 -462.322 57.737 -462.418 57.787 C -462.413 57.862 -412.995 809.007 -412.990 809.082 C -412.938 809.083 112.299 819.979 112.351 819.980 C 112.357 819.961 118.357 687.768 169.272 632.035 C 225.847 570.106 301.986 597.889 372.384 552.280 C 437.930 509.813 450.080 449.251 517.860 410.449 C 565.824 382.990 607.934 397.648 655.865 370.131 C 729.519 327.847 742.732 262.518 813.013 214.837 C 889.793 162.746 965.135 180.450 1034.427 118.747 C 1098.030 62.110 1146.564 -72.300 1146.575 -72.319 Z"/>
<path id="S4" fill="#f6965d" fill-rule="evenodd" stroke="none" d="M 1450.611 659.084 C 1450.611 659.115 1449.388 965.143 1449.388 965.174 C 1449.222 965.173 -205.936 958.558 -206.101 958.557 C -206.101 958.527 -204.878 652.498 -204.878 652.468 C -204.712 652.468 1450.446 659.083 1450.611 659.084 Z"/>
<path id="S4_2" fill="#f6965d" fill-rule="evenodd" stroke="none" d="M 1450.611 -213.318 C 1450.611 -213.287 1449.388 92.741 1449.388 92.772 C 1449.222 92.771 -205.936 86.156 -206.101 86.155 C -206.101 86.125 -204.878 -219.904 -204.878 -219.934 C -204.712 -219.934 1450.446 -213.319 1450.611 -213.318 Z"/>
</g>
</svg>
