<?xml version="1.0" encoding="utf-8"?>
<!-- Generator: Moho 14.2 build 20240604 -->
<!DOCTYPE svg PUBLIC "-//W3C//DTD SVG 1.1//EN" "http://www.w3.org/Graphics/SVG/1.1/DTD/svg11.dtd">
<svg version="1.1" id="Frame_1" xmlns="http://www.w3.org/2000/svg" xmlns:xlink="http://www.w3.org/1999/xlink" width="1280px" height="720px">
<g id="Layer_1">
<path id="S1" fill="#ffdd93" fill-rule="evenodd" stroke="none" d="M -33.092 -15.749 C -32.957 -15.749 1317.822 -15.749 1317.957 -15.749 C 1317.957 -15.672 1317.957 751.391 1317.957 751.467 C 1317.822 751.467 -32.957 751.467 -33.092 751.467 C -33.092 751.391 -33.092 -15.672 -33.092 -15.749 Z"/>
</g>
<g id="Layer_4">
<path id="S1" fill="#fbd579" fill-rule="evenodd" stroke="none" d="M 384.901 800.145 C 384.953 800.189 909.040 1243.630 909.092 1243.674 C 909.179 1243.636 1776.423 860.372 1776.510 860.334 C 1776.468 860.251 1361.552 35.868 1361.511 35.785 C 1361.504 35.803 1347.651 165.226 1293.663 215.723 C 1240.235 265.696 1175.356 235.208 1111.562 271.016 C 1049.177 306.034 1036.989 363.697 972.533 394.738 C 929.375 415.522 893.348 397.700 850.212 418.531 C 780.088 452.395 766.798 514.528 699.817 554.248 C 630.000 595.650 564.344 573.640 500.377 623.608 C 436.473 673.527 384.912 800.127 384.901 800.145 Z"/>
<path id="S1_2" fill="#ffe5a6" fill-rule="evenodd" stroke="none" d="M 1146.575 -72.319 C 1146.509 -72.356 491.026 -441.205 490.961 -441.242 C 490.865 -441.192 -462.322 57.737 -462.418 57.787 C -462.413 57.862 -412.995 809.007 -412.990 809.082 C -412.938 809.083 112.299 819.979 112.351 819.980 C 112.357 819.961 118.357 687.768 169.272 632.035 C 225.847 570.106 301.986 597.889 372.384 552.280 C 437.930 509.813 450.080 449.251 517.860 410.449 C 565.824 382.990 607.934 397.648 655.865 370.131 C 729.519 327.847 742.732 262.518 813.013 214.837 C 889.793 162.746 965.135 180.450 1034.427 118.747 C 1098.030 62.110 1146.564 -72.300 1146.575 -72.319 Z"/>
<path id="S4" fill="#f6965d" fill-rule="evenodd" stroke="none" d="M 1450.611 659.084 C 1450.611 659.115 1449.388 965.143 1449.388 965.174 C 1449.222 965.173 -205.936 958.558 -206.101 958.557 C -206.101 958.527 -204.878 652.498 -204.878 652.468 C -204.712 652.468 1450.446 659.083 1450.611 659.084 Z"/>
<path id="S4_2" fill="#f6965d" fill-rule="evenodd" stroke="none" d="M 1450.611 -213.318 C 1450.611 -213.287 1449.388 92.741 1449.388 92.772 C 1449.222 92.771 -205.936 86.156 -206.101 86.155 C -206.101 86.125 -204.878 -219.904 -204.878 -219.934 C -204.712 -219.934 1450.446 -213.319 1450.611 -213.318 Z"/>
</g>
<g id="Layer_2">
<path id="S1_2_2_6_4_2" fill="#e36c4c" fill-rule="evenodd" stroke="none" d="M 454.359 111.113 C 460.920 118.254 454.913 216.044 447.687 222.511 C 440.918 228.569 349.370 225.218 343.223 218.529 C 336.662 211.388 342.668 113.598 349.894 107.131 C 356.663 101.073 448.213 104.424 454.359 111.113 Z"/>
<path id="S1_2_2_6_4" fill="#e36c4c" fill-rule="evenodd" stroke="none" d="M 484.313 148.831 C 489.483 154.750 483.408 233.683 477.641 239.022 C 470.977 245.192 379.152 242.638 373.177 235.798 C 368.007 229.879 374.081 150.946 379.848 145.607 C 386.513 139.437 478.338 141.991 484.313 148.831 Z"/>
<path id="S1_2_2_6_3" fill="#e36c4c" fill-rule="evenodd" stroke="none" d="M 359.756 610.783 C 366.167 603.507 464.046 599.189 471.238 605.695 C 477.975 611.789 484.276 703.182 478.271 709.998 C 471.860 717.274 373.981 721.591 366.789 715.086 C 360.052 708.992 353.751 617.599 359.756 610.783 Z"/>
<path id="S1_2_2_6_2_2" fill="#e36c4c" fill-rule="evenodd" stroke="none" d="M 398.636 679.159 C 390.876 673.343 378.838 576.111 384.754 568.427 C 390.297 561.230 480.906 547.726 488.175 553.174 C 495.936 558.990 507.974 656.222 502.057 663.906 C 496.515 671.103 405.905 684.607 398.636 679.159 Z"/>
<path id="S1_2_2_6_2" fill="#e36c4c" fill-rule="evenodd" stroke="none" d="M 98.915 367.978 C 106.473 361.902 203.642 361.423 210.512 368.267 C 216.948 374.679 218.838 466.270 212.511 472.788 C 205.757 479.747 107.784 479.344 100.914 472.499 C 94.478 466.088 92.588 373.064 98.915 367.978 Z"/>
<path id="S1_2_2_6" fill="#e36c4c" fill-rule="evenodd" stroke="none" d="M 176.560 338.720 C 182.963 346.002 174.818 443.638 167.453 449.945 C 160.553 455.854 69.099 450.501 63.100 443.678 C 56.697 436.396 64.842 338.760 72.208 332.453 C 79.108 326.544 170.561 331.897 176.560 338.720 Z"/>
<path id="S1" fill="#ffeecb" fill-rule="evenodd" stroke="#e36c4c" stroke-width="11" stroke-linecap="round" stroke-linejoin="round" d="M 453.948 413.222 C 463.603 415.874 470.094 418.625 472.404 421.402 C 487.584 439.637 470.872 677.695 453.314 693.636 C 431.492 713.466 133.367 692.573 114.498 669.878 C 102.800 655.756 110.117 510.116 122.158 437.504 C 116.868 436.217 113.180 434.723 111.417 433.011 C 94.440 416.473 85.698 178.006 101.462 160.290 C 121.090 138.249 419.710 127.339 440.884 147.900 C 456.653 163.196 465.269 368.766 453.948 413.222 Z"/>
<path id="S1_2_2" fill="#e36c4c" fill-rule="evenodd" stroke="none" d="M 712.464 63.069 C 718.868 70.352 710.723 167.987 703.357 174.295 C 696.457 180.204 605.003 174.850 599.005 168.028 C 592.602 160.745 600.747 63.110 608.112 56.802 C 615.012 50.893 706.466 56.247 712.464 63.069 Z"/>
<path id="S1_2_2_2" fill="#e36c4c" fill-rule="evenodd" stroke="none" d="M 710.165 78.264 C 703.761 85.546 711.906 183.182 719.272 189.489 C 726.172 195.398 817.625 190.045 823.624 183.222 C 830.027 175.940 821.883 78.304 814.517 71.997 C 807.617 66.088 716.163 71.441 710.165 78.264 Z"/>
<path id="S1_2_2_3" fill="#e36c4c" fill-rule="evenodd" stroke="none" d="M 933.435 63.069 C 939.839 70.352 931.694 167.987 924.328 174.295 C 917.428 180.204 825.974 174.850 819.976 168.028 C 813.573 160.745 821.717 63.110 829.083 56.802 C 835.983 50.893 927.437 56.247 933.435 63.069 Z"/>
<path id="S1_2_2_2_2" fill="#e36c4c" fill-rule="evenodd" stroke="none" d="M 921.404 78.264 C 915.000 85.546 923.145 183.182 930.511 189.489 C 937.411 195.398 1028.865 190.045 1034.863 183.222 C 1041.266 175.940 1033.122 78.304 1025.756 71.997 C 1018.856 66.088 927.402 71.441 921.404 78.264 Z"/>
<path id="S1_2_2_4" fill="#e36c4c" fill-rule="evenodd" stroke="none" d="M 1142.384 63.069 C 1148.787 70.352 1140.643 167.987 1133.277 174.295 C 1126.377 180.204 1034.923 174.850 1028.925 168.028 C 1022.522 160.745 1030.666 63.110 1038.032 56.802 C 1044.932 50.893 1136.386 56.247 1142.384 63.069 Z"/>
<path id="S1_2_2_5" fill="#f0b47a" fill-rule="evenodd" stroke="none" d="M 546.113 212.706 C 555.293 204.635 678.367 214.901 686.318 224.186 C 693.766 232.884 687.017 348.165 678.418 355.726 C 669.238 363.798 546.164 353.531 538.213 344.246 C 530.765 335.549 537.513 220.268 546.113 212.706 Z"/>
<path fill="#e36c4c" d="M 543.472 209.702 C 555.359 200.635 678.957 210.945 689.356 221.584 L 683.279 226.788 C 677.776 218.857 555.227 208.634 548.754 215.710 L 543.472 209.702 Z"/>
<path fill="#e36c4c" d="M 689.356 221.584 C 697.766 232.861 689.002 348.413 679.738 357.228 L 677.097 354.224 C 685.033 347.917 689.766 232.906 683.279 226.788 L 689.356 221.584 Z"/>
<path fill="none" stroke="#e36c4c" stroke-width="1" stroke-linecap="butt" stroke-linejoin="round" d="M 689.356 221.584 L 683.279 226.788 "/>
<path fill="#e36c4c" d="M 679.738 357.228 C 669.204 365.798 545.574 357.487 535.175 346.848 L 541.251 341.645 C 546.755 349.575 669.271 361.798 677.097 354.224 L 679.738 357.228 Z"/>
<path fill="none" stroke="#e36c4c" stroke-width="1" stroke-linecap="butt" stroke-linejoin="round" d="M 679.738 357.228 L 677.097 354.224 "/>
<path fill="#e36c4c" d="M 535.175 346.848 C 526.765 335.571 533.544 219.772 543.472 209.702 L 548.754 215.710 C 541.482 220.764 534.765 335.526 541.251 341.645 L 535.175 346.848 Z"/>
<path fill="none" stroke="#e36c4c" stroke-width="1" stroke-linecap="butt" stroke-linejoin="round" d="M 535.175 346.848 L 541.251 341.645 "/>
<path id="S1_2_2_2_3" fill="#f0b47a" fill-rule="evenodd" stroke="none" d="M 542.417 380.487 C 534.346 389.667 544.613 512.740 553.897 520.691 C 562.595 528.139 677.877 521.391 685.438 512.792 C 693.510 503.611 683.243 380.538 673.958 372.587 C 665.260 365.139 549.979 371.887 542.417 380.487 Z"/>
<path fill="#e36c4c" d="M 545.421 383.128 C 538.345 389.600 548.569 512.150 556.499 517.653 L 551.296 523.729 C 540.656 513.330 530.346 389.733 539.413 377.845 L 545.421 383.128 Z"/>
<path fill="#e36c4c" d="M 556.499 517.653 C 562.618 524.139 677.381 517.422 682.434 510.150 L 688.442 515.433 C 678.372 525.360 562.573 532.139 551.296 523.729 L 556.499 517.653 Z"/>
<path fill="none" stroke="#e36c4c" stroke-width="1" stroke-linecap="butt" stroke-linejoin="round" d="M 556.499 517.653 L 551.296 523.729 "/>
<path fill="#e36c4c" d="M 682.434 510.150 C 689.510 503.678 681.265 380.833 672.657 374.106 L 675.259 371.068 C 685.221 380.243 697.509 503.545 688.442 515.433 L 682.434 510.150 Z"/>
<path fill="none" stroke="#e36c4c" stroke-width="1" stroke-linecap="butt" stroke-linejoin="round" d="M 682.434 510.150 L 688.442 515.433 "/>
<path fill="#e36c4c" d="M 672.657 374.106 C 665.249 367.139 550.475 375.856 545.421 383.128 L 539.413 377.845 C 549.483 367.918 665.271 363.139 675.259 371.068 L 672.657 374.106 Z"/>
<path fill="none" stroke="#e36c4c" stroke-width="1" stroke-linecap="butt" stroke-linejoin="round" d="M 672.657 374.106 L 675.259 371.068 "/>
<path id="S1_2_2_2_3_2" fill="#f0b47a" fill-rule="evenodd" stroke="none" d="M 547.775 688.817 C 556.956 696.888 680.028 686.622 687.979 677.337 C 695.428 668.639 688.680 553.358 680.080 545.797 C 670.900 537.725 547.827 547.992 539.875 557.277 C 532.427 565.974 539.176 681.256 547.775 688.817 Z"/>
<path fill="#e36c4c" d="M 550.416 685.813 C 556.889 692.889 679.438 682.665 684.941 674.735 L 691.018 679.939 C 680.619 690.578 557.022 700.888 545.134 691.821 L 550.416 685.813 Z"/>
<path fill="#e36c4c" d="M 684.941 674.735 C 691.428 668.617 684.711 553.854 677.439 548.801 L 682.722 542.793 C 692.649 552.862 699.428 668.662 691.018 679.939 L 684.941 674.735 Z"/>
<path fill="none" stroke="#e36c4c" stroke-width="1" stroke-linecap="butt" stroke-linejoin="round" d="M 684.941 674.735 L 691.018 679.939 "/>
<path fill="#e36c4c" d="M 677.439 548.801 C 670.966 541.724 548.122 549.970 541.395 558.578 L 538.356 555.976 C 547.531 546.014 670.834 533.726 682.722 542.793 L 677.439 548.801 Z"/>
<path fill="none" stroke="#e36c4c" stroke-width="1" stroke-linecap="butt" stroke-linejoin="round" d="M 677.439 548.801 L 682.722 542.793 "/>
<path fill="#e36c4c" d="M 541.395 558.578 C 534.427 565.986 543.145 680.760 550.417 685.813 L 545.134 691.821 C 535.206 681.752 530.427 565.963 538.356 555.976 L 541.395 558.578 Z"/>
<path fill="none" stroke="#e36c4c" stroke-width="1" stroke-linecap="butt" stroke-linejoin="round" d="M 541.395 558.578 L 538.356 555.976 "/>
<path id="S1_2_2_5_2" fill="#f0b47a" fill-rule="evenodd" stroke="none" d="M 855.687 688.817 C 846.507 696.889 723.433 686.622 715.482 677.337 C 708.034 668.639 714.782 553.358 723.382 545.797 C 732.562 537.725 855.635 547.992 863.586 557.277 C 871.035 565.974 864.286 681.256 855.687 688.817 Z"/>
<path fill="#e36c4c" d="M 858.328 691.821 C 846.440 700.888 722.843 690.578 712.444 679.939 L 718.520 674.735 C 724.023 682.666 846.573 692.889 853.046 685.813 L 858.328 691.821 Z"/>
<path fill="#e36c4c" d="M 712.444 679.939 C 704.034 668.662 712.798 553.110 722.061 544.295 L 724.702 547.299 C 716.767 553.606 712.034 668.617 718.520 674.735 L 712.444 679.939 Z"/>
<path fill="none" stroke="#e36c4c" stroke-width="1" stroke-linecap="butt" stroke-linejoin="round" d="M 712.444 679.939 L 718.520 674.735 "/>
<path fill="#e36c4c" d="M 722.061 544.295 C 732.595 535.726 856.226 544.036 866.625 554.675 L 860.548 559.878 C 855.045 551.948 732.529 539.725 724.702 547.299 L 722.061 544.295 Z"/>
<path fill="none" stroke="#e36c4c" stroke-width="1" stroke-linecap="butt" stroke-linejoin="round" d="M 722.061 544.295 L 724.702 547.299 "/>
<path fill="#e36c4c" d="M 866.625 554.675 C 875.034 565.952 868.256 681.752 858.328 691.821 L 853.046 685.813 C 860.317 680.760 867.035 565.997 860.548 559.878 L 866.625 554.675 Z"/>
<path fill="none" stroke="#e36c4c" stroke-width="1" stroke-linecap="butt" stroke-linejoin="round" d="M 866.625 554.675 L 860.548 559.878 "/>
<path id="S1_2_2_2_3_3" fill="#f0b47a" fill-rule="evenodd" stroke="none" d="M 859.382 521.037 C 867.454 511.856 857.187 388.783 847.902 380.832 C 839.205 373.384 723.923 380.132 716.362 388.732 C 708.290 397.912 718.557 520.985 727.842 528.936 C 736.540 536.384 851.821 529.636 859.382 521.037 Z"/>
<path fill="#e36c4c" d="M 856.378 518.395 C 863.455 511.923 855.209 389.078 846.601 382.351 L 849.203 379.313 C 859.165 388.488 871.453 511.790 862.386 523.678 L 856.378 518.395 Z"/>
<path fill="#e36c4c" d="M 846.601 382.351 C 839.193 375.384 724.419 384.101 719.366 391.373 L 713.358 386.090 C 723.427 376.163 839.216 371.384 849.203 379.313 L 846.601 382.351 Z"/>
<path fill="none" stroke="#e36c4c" stroke-width="1" stroke-linecap="butt" stroke-linejoin="round" d="M 846.601 382.351 L 849.203 379.313 "/>
<path fill="#e36c4c" d="M 719.366 391.373 C 712.289 397.845 722.513 520.395 730.444 525.898 L 725.240 531.974 C 714.601 521.575 704.291 397.978 713.358 386.090 L 719.366 391.373 Z"/>
<path fill="none" stroke="#e36c4c" stroke-width="1" stroke-linecap="butt" stroke-linejoin="round" d="M 719.366 391.373 L 713.358 386.090 "/>
<path fill="#e36c4c" d="M 730.444 525.898 C 736.562 532.385 851.325 525.667 856.378 518.395 L 862.386 523.678 C 852.317 533.605 736.517 540.384 725.240 531.974 L 730.444 525.898 Z"/>
<path fill="none" stroke="#e36c4c" stroke-width="1" stroke-linecap="butt" stroke-linejoin="round" d="M 730.444 525.898 L 725.240 531.974 "/>
<path id="S1_2_2_2_3_2_2" fill="#f0b47a" fill-rule="evenodd" stroke="none" d="M 854.024 212.706 C 844.844 204.635 721.771 214.902 713.820 224.186 C 706.372 232.884 713.120 348.165 721.719 355.726 C 730.900 363.798 853.973 353.531 861.924 344.246 C 869.372 335.549 862.624 220.268 854.024 212.706 Z"/>
<path fill="#e36c4c" d="M 851.383 215.710 C 844.911 208.634 722.362 218.858 716.858 226.788 L 710.782 221.585 C 721.181 210.945 844.778 200.635 856.666 209.702 L 851.383 215.710 Z"/>
<path fill="#e36c4c" d="M 716.858 226.788 C 710.372 232.907 715.104 347.917 723.040 354.225 L 720.399 357.228 C 711.135 348.413 702.372 232.861 710.782 221.585 L 716.858 226.788 Z"/>
<path fill="none" stroke="#e36c4c" stroke-width="1" stroke-linecap="butt" stroke-linejoin="round" d="M 716.858 226.788 L 710.782 221.585 "/>
<path fill="#e36c4c" d="M 723.040 354.224 C 730.866 361.799 853.383 349.575 858.886 341.645 L 864.962 346.848 C 854.563 357.487 730.933 365.798 720.399 357.228 L 723.040 354.224 Z"/>
<path fill="none" stroke="#e36c4c" stroke-width="1" stroke-linecap="butt" stroke-linejoin="round" d="M 723.040 354.224 L 720.399 357.228 "/>
<path fill="#e36c4c" d="M 858.886 341.645 C 865.373 335.526 858.655 220.764 851.383 215.710 L 856.666 209.702 C 866.593 219.772 873.372 335.571 864.962 346.848 L 858.886 341.645 Z"/>
<path fill="none" stroke="#e36c4c" stroke-width="1" stroke-linecap="butt" stroke-linejoin="round" d="M 858.886 341.645 L 864.962 346.848 "/>
<path id="S1_2_2_5_3" fill="#f0b47a" fill-rule="evenodd" stroke="none" d="M 896.132 212.706 C 905.312 204.635 1028.386 214.901 1036.337 224.186 C 1043.785 232.884 1037.037 348.165 1028.437 355.726 C 1019.257 363.798 896.184 353.531 888.233 344.246 C 880.784 335.549 887.533 220.268 896.132 212.706 Z"/>
<path fill="#e36c4c" d="M 894.812 211.204 C 905.346 202.635 1028.976 210.945 1039.375 221.584 L 1033.299 226.788 C 1027.796 218.857 905.279 206.634 897.453 214.208 L 894.812 211.204 Z"/>
<path fill="#e36c4c" d="M 1039.375 221.584 C 1047.785 232.861 1041.006 348.661 1031.078 358.730 L 1025.796 352.722 C 1033.068 347.669 1039.785 232.906 1033.299 226.788 L 1039.375 221.584 Z"/>
<path fill="none" stroke="#e36c4c" stroke-width="1" stroke-linecap="butt" stroke-linejoin="round" d="M 1039.375 221.584 L 1033.299 226.788 "/>
<path fill="#e36c4c" d="M 1031.078 358.730 C 1019.191 367.797 895.593 357.487 885.194 346.848 L 891.271 341.645 C 896.774 349.575 1019.323 359.798 1025.796 352.722 L 1031.078 358.730 Z"/>
<path fill="none" stroke="#e36c4c" stroke-width="1" stroke-linecap="butt" stroke-linejoin="round" d="M 1031.078 358.730 L 1025.796 352.722 "/>
<path fill="#e36c4c" d="M 885.194 346.848 C 876.784 335.571 885.548 220.020 894.812 211.204 L 897.453 214.208 C 889.517 220.516 884.784 335.526 891.271 341.645 L 885.194 346.848 Z"/>
<path fill="none" stroke="#e36c4c" stroke-width="1" stroke-linecap="butt" stroke-linejoin="round" d="M 885.194 346.848 L 891.271 341.645 "/>
<path id="S1_2_2_2_3_4" fill="#f0b47a" fill-rule="evenodd" stroke="none" d="M 892.437 380.487 C 884.365 389.667 894.632 512.740 903.917 520.691 C 912.615 528.139 1027.896 521.391 1035.457 512.792 C 1043.529 503.611 1033.262 380.538 1023.977 372.587 C 1015.279 365.139 899.998 371.887 892.437 380.487 Z"/>
<path fill="#e36c4c" d="M 895.441 383.128 C 888.364 389.600 898.588 512.150 906.519 517.653 L 901.315 523.729 C 890.676 513.330 880.366 389.733 889.433 377.845 L 895.441 383.128 Z"/>
<path fill="#e36c4c" d="M 906.519 517.653 C 912.637 524.139 1027.648 519.407 1033.955 511.471 L 1036.959 514.112 C 1028.144 523.376 912.592 532.139 901.315 523.729 L 906.519 517.653 Z"/>
<path fill="none" stroke="#e36c4c" stroke-width="1" stroke-linecap="butt" stroke-linejoin="round" d="M 906.519 517.653 L 901.315 523.729 "/>
<path fill="#e36c4c" d="M 1033.955 511.471 C 1041.529 503.645 1029.306 381.129 1021.375 375.625 L 1026.579 369.549 C 1037.218 379.948 1045.529 503.578 1036.959 514.112 L 1033.955 511.471 Z"/>
<path fill="none" stroke="#e36c4c" stroke-width="1" stroke-linecap="butt" stroke-linejoin="round" d="M 1033.955 511.471 L 1036.959 514.112 "/>
<path fill="#e36c4c" d="M 1021.375 375.625 C 1015.257 369.139 900.494 375.856 895.441 383.128 L 889.433 377.845 C 899.502 367.918 1015.302 361.139 1026.579 369.549 L 1021.375 375.625 Z"/>
<path fill="none" stroke="#e36c4c" stroke-width="1" stroke-linecap="butt" stroke-linejoin="round" d="M 1021.375 375.625 L 1026.579 369.549 "/>
<path id="S1_2_2_2_3_2_3" fill="#f0b47a" fill-rule="evenodd" stroke="#e36c4c" stroke-width="8" stroke-linecap="round" stroke-linejoin="round" d="M 897.795 688.817 C 906.975 696.888 1030.048 686.622 1037.999 677.337 C 1045.447 668.639 1038.699 553.358 1030.100 545.797 C 1020.919 537.725 897.846 547.992 889.895 557.277 C 882.447 565.974 889.195 681.256 897.795 688.817 Z"/>
<path id="S1_2_2_5_2_2" fill="#f0b47a" fill-rule="evenodd" stroke="none" d="M 1205.706 688.817 C 1196.526 696.889 1073.452 686.622 1065.501 677.337 C 1058.053 668.639 1064.802 553.358 1073.401 545.797 C 1082.581 537.725 1205.655 547.992 1213.606 557.277 C 1221.054 565.974 1214.306 681.256 1205.706 688.817 Z"/>
<path fill="#e36c4c" d="M 1208.347 691.821 C 1196.460 700.888 1072.862 690.578 1062.463 679.939 L 1068.539 674.735 C 1074.043 682.666 1196.593 692.889 1203.065 685.813 L 1208.347 691.821 Z"/>
<path fill="#e36c4c" d="M 1062.463 679.939 C 1054.053 668.662 1062.817 553.110 1072.081 544.295 L 1074.722 547.299 C 1066.786 553.606 1062.053 668.617 1068.539 674.735 L 1062.463 679.939 Z"/>
<path fill="none" stroke="#e36c4c" stroke-width="1" stroke-linecap="butt" stroke-linejoin="round" d="M 1062.463 679.939 L 1068.539 674.735 "/>
<path fill="#e36c4c" d="M 1072.081 544.295 C 1082.615 535.726 1206.245 544.036 1216.644 554.675 L 1210.568 559.878 C 1205.064 551.948 1082.548 539.725 1074.722 547.299 L 1072.081 544.295 Z"/>
<path fill="none" stroke="#e36c4c" stroke-width="1" stroke-linecap="butt" stroke-linejoin="round" d="M 1072.081 544.295 L 1074.722 547.299 "/>
<path fill="#e36c4c" d="M 1216.644 554.675 C 1225.054 565.952 1218.275 681.752 1208.347 691.821 L 1203.065 685.813 C 1210.337 680.760 1217.054 565.997 1210.568 559.878 L 1216.644 554.675 Z"/>
<path fill="none" stroke="#e36c4c" stroke-width="1" stroke-linecap="butt" stroke-linejoin="round" d="M 1216.644 554.675 L 1210.568 559.878 "/>
<path id="S1_2_2_2_3_3_2" fill="#f0b47a" fill-rule="evenodd" stroke="none" d="M 1209.402 521.037 C 1217.473 511.856 1207.207 388.783 1197.922 380.832 C 1189.224 373.384 1073.943 380.132 1066.381 388.732 C 1058.309 397.912 1068.576 520.985 1077.861 528.936 C 1086.559 536.384 1201.840 529.636 1209.402 521.037 Z"/>
<path fill="#e36c4c" d="M 1206.398 518.395 C 1213.474 511.923 1205.070 389.102 1196.517 382.473 L 1199.326 379.192 C 1209.343 388.464 1221.473 511.790 1212.406 523.678 L 1206.398 518.395 Z"/>
<path fill="#e36c4c" d="M 1196.517 382.473 C 1189.212 375.544 1074.438 384.101 1069.385 391.373 L 1063.377 386.090 C 1073.447 376.163 1189.236 371.224 1199.326 379.192 L 1196.517 382.473 Z"/>
<path fill="none" stroke="#e36c4c" stroke-width="1" stroke-linecap="butt" stroke-linejoin="round" d="M 1196.517 382.473 L 1199.326 379.192 "/>
<path fill="#e36c4c" d="M 1069.385 391.373 C 1062.309 397.845 1072.532 520.395 1080.463 525.898 L 1075.259 531.974 C 1064.620 521.575 1054.310 397.978 1063.377 386.090 L 1069.385 391.373 Z"/>
<path fill="none" stroke="#e36c4c" stroke-width="1" stroke-linecap="butt" stroke-linejoin="round" d="M 1069.385 391.373 L 1063.377 386.090 "/>
<path fill="#e36c4c" d="M 1080.463 525.898 C 1086.582 532.385 1201.344 525.667 1206.398 518.395 L 1212.406 523.678 C 1202.336 533.605 1086.536 540.384 1075.260 531.974 L 1080.463 525.898 Z"/>
<path fill="none" stroke="#e36c4c" stroke-width="1" stroke-linecap="butt" stroke-linejoin="round" d="M 1080.463 525.898 L 1075.260 531.974 "/>
<path id="S1_2_2_2_3_2_2_2" fill="#f0b47a" fill-rule="evenodd" stroke="none" d="M 1204.044 212.706 C 1194.863 204.635 1071.791 214.902 1063.840 224.186 C 1056.391 232.884 1063.139 348.165 1071.739 355.726 C 1080.919 363.798 1203.993 353.531 1211.944 344.246 C 1219.392 335.549 1212.643 220.268 1204.044 212.706 Z"/>
<path fill="#e36c4c" d="M 1201.403 215.710 C 1194.930 208.634 1072.381 218.858 1066.878 226.788 L 1060.801 221.585 C 1071.200 210.945 1194.797 200.635 1206.685 209.702 L 1201.403 215.710 Z"/>
<path fill="#e36c4c" d="M 1066.878 226.788 C 1060.391 232.907 1065.124 347.917 1073.059 354.225 L 1070.418 357.228 C 1061.155 348.413 1052.391 232.861 1060.801 221.585 L 1066.878 226.788 Z"/>
<path fill="none" stroke="#e36c4c" stroke-width="1" stroke-linecap="butt" stroke-linejoin="round" d="M 1066.878 226.788 L 1060.801 221.585 "/>
<path fill="#e36c4c" d="M 1073.059 354.224 C 1080.886 361.799 1203.402 349.575 1208.905 341.645 L 1214.982 346.848 C 1204.583 357.487 1080.952 365.798 1070.418 357.228 L 1073.059 354.224 Z"/>
<path fill="none" stroke="#e36c4c" stroke-width="1" stroke-linecap="butt" stroke-linejoin="round" d="M 1073.059 354.224 L 1070.418 357.228 "/>
<path fill="#e36c4c" d="M 1208.905 341.645 C 1215.392 335.526 1208.674 220.763 1201.403 215.710 L 1206.685 209.702 C 1216.612 219.772 1223.392 335.571 1214.982 346.848 L 1208.905 341.645 Z"/>
<path fill="none" stroke="#e36c4c" stroke-width="1" stroke-linecap="butt" stroke-linejoin="round" d="M 1208.905 341.645 L 1214.982 346.848 "/>
<path id="S1_2_2_6_5" fill="#e36c4c" fill-rule="evenodd" stroke="none" d="M 497.503 678.802 C 499.870 676.721 531.599 679.368 533.649 681.762 C 535.569 684.004 533.829 713.724 531.612 715.674 C 529.246 717.755 497.516 715.108 495.467 712.714 C 493.546 710.472 495.286 680.751 497.503 678.802 Z"/>
<path id="S1_2_2_6_5_2" fill="#e36c4c" fill-rule="evenodd" stroke="none" d="M 290.733 140.654 C 289.110 138.917 289.913 114.992 291.595 113.313 C 293.582 111.331 321.979 111.347 323.895 113.398 C 325.517 115.135 324.715 139.059 323.032 140.738 C 321.046 142.721 292.648 142.705 290.733 140.654 Z"/>
<path id="S1_2_2_6_5_2_2" fill="#e36c4c" fill-rule="evenodd" stroke="none" d="M 468.530 134.007 C 466.210 131.653 467.096 98.266 469.481 95.977 C 471.716 93.832 502.944 93.888 505.117 96.094 C 507.437 98.449 506.551 131.835 504.166 134.124 C 501.932 136.269 470.703 136.213 468.530 134.007 Z"/>
<path id="S1_2_2_6_5_2_3" fill="#e36c4c" fill-rule="evenodd" stroke="none" d="M 95.168 516.460 C 93.431 518.082 69.506 517.280 67.827 515.597 C 65.844 513.610 65.861 485.213 67.912 483.297 C 69.649 481.675 93.573 482.478 95.252 484.160 C 97.235 486.147 97.219 514.544 95.168 516.460 Z"/>
<path id="S1_2_2_6_4_2_2" fill="#e36c4c" fill-rule="evenodd" stroke="none" d="M 1221.962 691.320 C 1229.103 684.759 1326.893 690.765 1333.360 697.991 C 1339.419 704.760 1336.068 796.309 1329.379 802.456 C 1322.238 809.017 1224.448 803.010 1217.980 795.784 C 1211.922 789.015 1215.273 697.466 1221.962 691.320 Z"/>
<path id="S1_2_2_6_4_3" fill="#e36c4c" fill-rule="evenodd" stroke="none" d="M 1266.916 593.540 C 1273.176 588.737 1351.614 598.360 1357.106 604.025 C 1367.039 614.269 1365.204 759.517 1353.883 768.203 C 1347.622 773.005 1269.184 763.383 1263.692 757.718 C 1253.759 747.473 1255.594 602.226 1266.916 593.540 Z"/>
<path id="S1_2_2_6_5_2_2_2" fill="#e36c4c" fill-rule="evenodd" stroke="none" d="M 1243.810 676.833 C 1241.455 679.153 1208.068 678.266 1205.779 675.881 C 1203.635 673.647 1203.691 642.419 1205.897 640.245 C 1208.252 637.925 1241.638 638.812 1243.927 641.197 C 1246.071 643.431 1246.016 674.660 1243.810 676.833 Z"/>
</g>
<g id="Layer_3">
<path id="S1" fill="#ffeecb" fill-rule="evenodd" stroke="none" d="M 631.704 127.938 C 623.657 126.435 615.610 124.935 607.559 123.427 C 611.768 130.342 616.014 137.231 620.187 144.172 C 643.155 145.433 666.162 146.672 689.098 147.956 C 694.604 141.331 700.138 134.686 705.617 128.079 C 697.355 128.501 689.108 128.912 680.833 129.341 C 680.485 130.013 680.138 130.685 679.791 131.357 C 669.176 131.350 658.531 131.352 647.886 131.354 C 642.564 131.356 637.242 131.357 631.925 131.357 C 631.854 130.216 631.780 129.076 631.704 127.938 M 632.646 113.984 C 631.234 100.138 629.817 86.290 628.404 72.445 C 650.289 74.739 672.154 77.042 694.026 79.340 C 690.360 90.881 686.676 102.433 682.993 113.983 C 678.469 113.984 673.945 113.984 669.420 113.985 C 657.165 113.988 644.909 113.990 632.646 113.984 Z"/>
<path id="S1_2" fill="#ffeecb" fill-rule="evenodd" stroke="none" d="M 907.940 137.615 C 907.939 137.617 892.735 153.027 892.733 153.028 C 892.730 153.028 857.517 148.364 857.513 148.364 C 857.511 148.361 836.533 124.675 836.531 124.673 C 836.531 124.671 837.415 105.974 837.415 105.972 C 837.417 105.973 858.146 117.600 858.148 117.602 C 858.151 117.602 888.815 118.388 888.818 118.388 C 888.815 118.387 856.671 110.978 856.668 110.978 C 856.667 110.975 848.465 82.414 848.465 82.411 C 848.467 82.410 870.711 76.826 870.713 76.826 C 870.717 76.826 910.602 79.810 910.606 79.811 C 910.606 79.816 907.940 137.609 907.940 137.615 Z"/>
<path id="S4" fill="#ffeecb" fill-rule="evenodd" stroke="none" d="M 1055.199 80.001 C 1055.202 80.000 1077.908 75.950 1077.911 75.950 C 1077.913 75.955 1105.415 127.432 1105.418 127.437 C 1105.421 127.436 1133.717 112.096 1133.720 112.095 C 1133.719 112.098 1119.468 149.416 1119.466 149.420 C 1119.463 149.420 1087.732 148.988 1087.729 148.988 C 1087.727 148.986 1071.324 130.264 1071.322 130.262 C 1071.320 130.263 1051.227 137.841 1051.225 137.841 C 1051.225 137.836 1055.199 80.006 1055.199 80.001 Z"/>
<path id="S5" fill="#ffeecb" fill-rule="evenodd" stroke="none" d="M 1106.550 79.697 C 1106.549 79.699 1097.467 99.619 1097.466 99.621 C 1097.465 99.619 1086.443 79.769 1086.442 79.767 C 1086.444 79.767 1106.548 79.697 1106.550 79.697 Z"/>
<path id="S5_2" fill="#ffeecb" fill-rule="evenodd" stroke="none" d="M 1110.812 104.589 C 1110.812 104.590 1107.429 118.909 1107.428 118.911 C 1107.428 118.909 1099.748 103.382 1099.747 103.381 C 1099.748 103.381 1110.811 104.589 1110.812 104.589 Z"/>
<path id="S7" fill="#ffeecb" fill-rule="evenodd" stroke="none" d="M 756.649 165.769 C 756.653 165.769 788.991 162.352 788.995 162.352 C 788.996 162.346 803.930 98.384 803.931 98.378 C 803.928 98.377 772.987 93.681 772.984 93.680 C 772.983 93.681 764.186 104.827 764.185 104.828 C 764.186 104.830 777.955 129.202 777.956 129.205 C 777.956 129.206 770.234 140.895 770.234 140.896 C 770.233 140.896 759.682 132.489 759.681 132.488 C 759.681 132.485 762.873 105.148 762.873 105.145 C 762.872 105.144 751.514 96.672 751.513 96.671 C 751.510 96.672 720.708 106.710 720.705 106.711 C 720.709 106.717 756.646 165.763 756.649 165.769 Z"/>
<path id="S8" fill="#ffeecb" fill-rule="evenodd" stroke="none" d="M 1020.660 112.451 C 1018.278 123.675 1015.886 134.892 1013.500 146.111 C 1015.015 150.755 1016.524 155.400 1018.032 160.045 C 1010.315 160.045 1002.598 160.047 994.881 160.048 C 978.105 160.051 961.328 160.054 944.544 160.049 C 942.792 156.528 941.036 153.009 939.289 149.485 C 943.828 144.798 948.311 140.155 952.807 135.500 C 965.769 137.802 978.750 140.105 991.665 142.408 C 984.390 137.452 977.121 132.503 969.846 127.548 C 970.284 115.856 970.664 104.211 971.083 92.536 C 987.668 99.123 1004.136 105.813 1020.660 112.451 M 946.559 164.106 C 952.347 164.105 958.137 164.104 963.926 164.103 C 973.365 164.102 982.804 164.100 992.238 164.100 C 990.944 166.301 989.615 168.524 988.307 170.735 C 975.532 170.756 962.691 170.817 949.885 170.859 C 948.783 168.604 947.673 166.354 946.559 164.106 M 993.481 164.099 C 1002.109 164.099 1010.733 164.100 1019.350 164.104 C 1020.020 166.167 1020.690 168.231 1021.360 170.294 C 1014.126 170.220 1006.858 170.156 999.608 170.087 C 997.584 168.083 995.527 166.093 993.481 164.099 Z"/>
</g>
<g id="">
<path id="S1" fill="#ffeecb" fill-rule="evenodd" stroke="#ffeecb" stroke-width="1" stroke-linecap="round" stroke-linejoin="round" d="M 19.663 40.666 C 19.663 43.960 19.663 47.254 19.663 50.548 C 21.602 50.548 23.541 50.548 25.481 50.548 C 29.253 50.548 31.609 50.389 32.548 50.070 C 33.486 49.751 34.221 49.202 34.753 48.423 C 35.284 47.644 35.550 46.670 35.550 45.501 C 35.550 44.190 35.195 43.136 34.487 42.339 C 33.796 41.524 32.813 41.011 31.538 40.798 C 30.900 40.710 28.988 40.666 25.800 40.666 C 23.754 40.666 21.708 40.666 19.663 40.666 M 19.663 73.023 C 17.042 73.023 14.420 73.023 11.799 73.023 C 11.799 60.041 11.799 47.059 11.799 34.077 C 17.316 34.078 22.833 34.078 28.350 34.077 C 32.512 34.077 35.532 34.431 37.409 35.140 C 39.304 35.830 40.819 37.070 41.952 38.859 C 43.085 40.648 43.652 42.693 43.652 44.996 C 43.652 47.918 42.793 50.336 41.075 52.248 C 39.357 54.143 36.789 55.339 33.371 55.835 C 35.071 56.827 36.470 57.916 37.569 59.103 C 38.684 60.289 40.181 62.397 42.058 65.425 C 43.643 67.958 45.228 70.491 46.814 73.023 C 43.679 73.023 40.544 73.023 37.409 73.023 C 35.514 70.199 33.619 67.374 31.724 64.549 C 29.705 61.520 28.323 59.616 27.580 58.837 C 26.836 58.040 26.048 57.500 25.215 57.216 C 24.383 56.915 23.063 56.765 21.257 56.765 C 20.725 56.765 20.194 56.765 19.663 56.765 C 19.663 62.184 19.663 67.604 19.663 73.023 Z"/>
<path id="S2" fill="#ffeecb" fill-rule="evenodd" stroke="#ffeecb" stroke-width="1" stroke-linecap="round" stroke-linejoin="round" d="M 56.085 56.499 C 59.805 56.499 63.524 56.499 67.243 56.499 C 67.190 54.338 66.632 52.700 65.570 51.584 C 64.507 50.451 63.214 49.884 61.691 49.884 C 60.061 49.884 58.715 50.477 57.653 51.664 C 56.590 52.851 56.068 54.462 56.085 56.499 M 65.012 67.126 C 65.809 66.488 66.411 65.461 66.818 64.044 C 69.297 64.460 71.777 64.876 74.257 65.293 C 73.300 68.020 71.786 70.101 69.714 71.536 C 67.660 72.953 65.083 73.661 61.983 73.661 C 57.077 73.661 53.446 72.058 51.091 68.852 C 49.231 66.284 48.301 63.043 48.301 59.129 C 48.301 54.453 49.523 50.796 51.968 48.157 C 54.412 45.501 57.502 44.172 61.239 44.172 C 65.437 44.172 68.749 45.563 71.175 48.343 C 73.601 51.106 74.762 55.348 74.655 61.069 C 68.421 61.069 62.187 61.069 55.953 61.069 C 56.006 63.282 56.608 65.009 57.759 66.249 C 58.910 67.471 60.345 68.082 62.063 68.082 C 63.232 68.082 64.215 67.763 65.012 67.126 Z"/>
<path id="S3" fill="#ffeecb" fill-rule="evenodd" stroke="#ffeecb" stroke-width="1" stroke-linecap="round" stroke-linejoin="round" d="M 95.776 60.962 C 95.775 60.466 95.775 59.971 95.776 59.475 C 94.819 59.793 93.305 60.174 91.233 60.617 C 89.161 61.060 87.806 61.494 87.168 61.919 C 86.194 62.609 85.707 63.486 85.707 64.549 C 85.707 65.594 86.097 66.497 86.876 67.259 C 87.655 68.020 88.647 68.401 89.851 68.401 C 91.197 68.401 92.481 67.958 93.703 67.072 C 94.607 66.399 95.200 65.576 95.483 64.602 C 95.678 63.964 95.776 62.751 95.776 60.962 M 87.593 50.681 C 86.849 51.195 86.247 52.107 85.787 53.417 C 83.528 53.010 81.270 52.603 79.012 52.195 C 79.774 49.468 81.084 47.449 82.944 46.138 C 84.804 44.828 87.567 44.172 91.233 44.172 C 94.562 44.172 97.042 44.571 98.671 45.368 C 100.301 46.147 101.443 47.148 102.098 48.370 C 102.771 49.574 103.108 51.797 103.108 55.038 C 103.081 57.943 103.054 60.847 103.028 63.752 C 103.028 66.231 103.143 68.064 103.373 69.251 C 103.621 70.420 104.073 71.677 104.728 73.023 C 102.266 73.023 99.804 73.023 97.343 73.023 C 97.148 72.527 96.909 71.793 96.626 70.818 C 96.502 70.376 96.413 70.083 96.360 69.942 C 95.085 71.181 93.721 72.111 92.269 72.731 C 90.816 73.351 89.267 73.661 87.620 73.661 C 84.715 73.661 82.422 72.873 80.739 71.296 C 79.074 69.720 78.242 67.728 78.242 65.319 C 78.242 63.725 78.623 62.308 79.384 61.069 C 80.146 59.811 81.208 58.855 82.572 58.199 C 83.953 57.526 85.937 56.942 88.523 56.446 C 92.012 55.791 94.430 55.180 95.776 54.613 C 95.775 54.365 95.775 54.117 95.776 53.869 C 95.776 52.434 95.421 51.416 94.713 50.814 C 94.004 50.194 92.667 49.884 90.701 49.884 C 89.373 49.884 88.337 50.150 87.593 50.681 Z"/>
<path id="S4" fill="#ffeecb" fill-rule="evenodd" stroke="#ffeecb" stroke-width="1" stroke-linecap="round" stroke-linejoin="round" d="M 109.935 73.023 C 109.935 60.041 109.935 47.059 109.935 34.077 C 112.424 34.077 114.912 34.078 117.401 34.077 C 117.400 47.059 117.400 60.041 117.401 73.023 C 114.912 73.023 112.424 73.023 109.935 73.023 Z"/>
<path id="S5" fill="#ffeecb" fill-rule="evenodd" stroke="#ffeecb" stroke-width="1" stroke-linecap="round" stroke-linejoin="round" d="M 124.520 73.023 C 124.520 60.041 124.520 47.059 124.520 34.077 C 127.009 34.077 129.497 34.078 131.985 34.077 C 131.985 47.059 131.985 60.041 131.985 73.023 C 129.497 73.023 127.009 73.023 124.520 73.023 Z"/>
<path id="S6" fill="#ffeecb" fill-rule="evenodd" stroke="#ffeecb" stroke-width="1" stroke-linecap="round" stroke-linejoin="round" d="M 135.572 44.810 C 138.220 44.810 140.867 44.810 143.515 44.810 C 145.764 51.487 148.014 58.164 150.263 64.841 C 152.459 58.164 154.655 51.487 156.852 44.810 C 159.428 44.810 162.005 44.810 164.582 44.810 C 161.261 53.860 157.941 62.910 154.620 71.961 C 154.027 73.599 153.433 75.237 152.840 76.875 C 152.185 78.523 151.556 79.780 150.954 80.648 C 150.369 81.516 149.688 82.215 148.908 82.747 C 148.147 83.296 147.199 83.721 146.066 84.022 C 144.950 84.323 143.684 84.473 142.267 84.473 C 140.832 84.473 139.424 84.323 138.043 84.022 C 137.821 82.074 137.600 80.125 137.378 78.177 C 138.547 78.408 139.601 78.523 140.540 78.523 C 142.276 78.523 143.560 78.009 144.392 76.982 C 145.224 75.972 145.862 74.679 146.305 73.103 C 142.727 63.672 139.149 54.241 135.572 44.810 Z"/>
<path id="S7" fill="#ffeecb" fill-rule="evenodd" stroke="#ffeecb" stroke-width="1" stroke-linecap="round" stroke-linejoin="round" d="M 169.099 73.023 C 169.099 60.148 169.099 47.272 169.099 34.396 C 171.720 34.396 174.341 34.396 176.962 34.396 C 176.962 45.085 176.962 55.773 176.962 66.461 C 183.480 66.462 189.997 66.462 196.515 66.461 C 196.515 68.649 196.515 70.836 196.515 73.023 C 187.376 73.023 178.237 73.023 169.099 73.023 Z"/>
<path id="S8" fill="#ffeecb" fill-rule="evenodd" stroke="#ffeecb" stroke-width="1" stroke-linecap="round" stroke-linejoin="round" d="M 209.453 52.487 C 208.125 53.975 207.461 56.118 207.461 58.917 C 207.461 61.715 208.125 63.858 209.453 65.346 C 210.781 66.833 212.420 67.577 214.368 67.577 C 216.316 67.577 217.945 66.833 219.256 65.346 C 220.584 63.858 221.248 61.697 221.248 58.864 C 221.248 56.101 220.584 53.975 219.256 52.487 C 217.945 51.000 216.316 50.256 214.368 50.256 C 212.420 50.256 210.781 51.000 209.453 52.487 M 201.643 66.780 C 200.420 64.513 199.809 61.759 199.809 58.518 C 199.809 56.039 200.420 53.639 201.643 51.319 C 202.865 48.998 204.591 47.227 206.823 46.005 C 209.072 44.783 211.578 44.172 214.341 44.172 C 218.609 44.172 222.107 45.563 224.835 48.343 C 227.562 51.106 228.926 54.604 228.926 58.837 C 228.926 63.105 227.545 66.647 224.782 69.463 C 222.037 72.262 218.574 73.661 214.394 73.661 C 211.809 73.661 209.338 73.076 206.982 71.907 C 204.644 70.739 202.865 69.030 201.643 66.780 Z"/>
<path id="S9" fill="#ffeecb" fill-rule="evenodd" stroke="#ffeecb" stroke-width="1" stroke-linecap="round" stroke-linejoin="round" d="M 259.902 73.023 C 257.414 73.023 254.925 73.023 252.437 73.023 C 252.437 68.224 252.437 63.424 252.437 58.624 C 252.437 55.578 252.278 53.612 251.959 52.727 C 251.640 51.823 251.118 51.124 250.392 50.628 C 249.683 50.132 248.824 49.884 247.815 49.884 C 246.522 49.884 245.362 50.238 244.335 50.947 C 243.307 51.655 242.599 52.594 242.209 53.763 C 241.837 54.932 241.652 57.092 241.652 60.245 C 241.651 64.505 241.651 68.764 241.652 73.023 C 239.163 73.023 236.675 73.023 234.186 73.023 C 234.186 63.619 234.186 54.215 234.186 44.810 C 236.497 44.810 238.809 44.810 241.120 44.810 C 241.120 46.192 241.120 47.573 241.120 48.954 C 243.582 45.766 246.681 44.172 250.418 44.172 C 252.065 44.172 253.571 44.473 254.935 45.075 C 256.298 45.660 257.326 46.413 258.016 47.334 C 258.725 48.255 259.212 49.299 259.478 50.468 C 259.761 51.637 259.903 53.311 259.902 55.490 C 259.902 61.334 259.902 67.179 259.902 73.023 Z"/>
<path id="S10" fill="#ffeecb" fill-rule="evenodd" stroke="#ffeecb" stroke-width="1" stroke-linecap="round" stroke-linejoin="round" d="M 274.647 51.983 C 273.496 53.364 272.920 55.481 272.920 58.332 C 272.920 61.325 273.496 63.521 274.647 64.921 C 275.816 66.302 277.250 66.993 278.951 66.993 C 280.775 66.993 282.316 66.284 283.573 64.867 C 284.831 63.433 285.459 61.316 285.459 58.518 C 285.459 55.596 284.857 53.426 283.653 52.009 C 282.448 50.593 280.925 49.884 279.083 49.884 C 277.295 49.884 275.816 50.584 274.647 51.983 M 266.225 75.786 C 266.225 75.538 266.234 75.237 266.252 74.883 C 269.095 75.228 271.937 75.574 274.780 75.919 C 274.921 76.911 275.249 77.593 275.763 77.965 C 276.471 78.496 277.587 78.762 279.110 78.762 C 281.058 78.762 282.519 78.469 283.493 77.885 C 284.149 77.495 284.645 76.867 284.981 75.999 C 285.212 75.379 285.327 74.236 285.327 72.572 C 285.326 71.199 285.326 69.826 285.327 68.454 C 283.095 71.500 280.279 73.023 276.878 73.023 C 273.088 73.023 270.086 71.420 267.873 68.215 C 266.137 65.682 265.269 62.530 265.269 58.757 C 265.269 54.028 266.402 50.415 268.669 47.918 C 270.954 45.421 273.788 44.172 277.171 44.172 C 280.660 44.172 283.538 45.704 285.805 48.768 C 285.805 47.449 285.805 46.130 285.805 44.810 C 288.134 44.810 290.462 44.810 292.792 44.810 C 292.791 53.249 292.791 61.688 292.792 70.128 C 292.792 73.457 292.517 75.946 291.968 77.593 C 291.419 79.240 290.649 80.533 289.657 81.471 C 288.665 82.410 287.337 83.145 285.672 83.676 C 284.025 84.208 281.935 84.473 279.402 84.473 C 274.620 84.473 271.229 83.650 269.227 82.003 C 267.226 80.373 266.226 78.301 266.225 75.786 Z"/>
<path id="S11" fill="#ffeecb" fill-rule="evenodd" stroke="#ffeecb" stroke-width="1" stroke-linecap="round" stroke-linejoin="round" d="M 297.707 60.351 C 300.257 60.103 302.807 59.855 305.358 59.607 C 305.818 62.175 306.748 64.062 308.147 65.266 C 309.564 66.470 311.468 67.072 313.859 67.072 C 316.391 67.072 318.295 66.541 319.571 65.478 C 320.863 64.398 321.510 63.141 321.510 61.706 C 321.510 60.785 321.236 60.006 320.686 59.368 C 320.155 58.713 319.216 58.146 317.870 57.668 C 316.949 57.349 314.851 56.782 311.574 55.968 C 307.359 54.923 304.401 53.639 302.701 52.116 C 300.310 49.973 299.114 47.360 299.114 44.279 C 299.114 42.295 299.672 40.444 300.788 38.726 C 301.922 36.990 303.542 35.671 305.650 34.768 C 307.775 33.864 310.334 33.413 313.327 33.413 C 318.216 33.413 321.891 34.484 324.353 36.627 C 326.832 38.770 328.134 41.631 328.258 45.208 C 325.636 45.324 323.015 45.439 320.394 45.554 C 320.058 43.552 319.332 42.118 318.216 41.250 C 317.118 40.364 315.462 39.922 313.248 39.922 C 310.963 39.922 309.174 40.391 307.881 41.330 C 307.049 41.932 306.633 42.738 306.633 43.747 C 306.633 44.668 307.022 45.456 307.802 46.112 C 308.794 46.944 311.202 47.812 315.028 48.715 C 318.853 49.618 321.678 50.557 323.502 51.531 C 325.344 52.488 326.779 53.807 327.806 55.490 C 328.851 57.154 329.374 59.218 329.374 61.680 C 329.374 63.911 328.754 66.001 327.514 67.949 C 326.274 69.897 324.521 71.350 322.254 72.306 C 319.987 73.245 317.162 73.714 313.779 73.714 C 308.856 73.714 305.074 72.581 302.435 70.314 C 299.796 68.029 298.220 64.708 297.707 60.351 Z"/>
<path id="S12" fill="#ffeecb" fill-rule="evenodd" stroke="#ffeecb" stroke-width="1" stroke-linecap="round" stroke-linejoin="round" d="M 350.972 60.962 C 350.972 60.466 350.972 59.971 350.972 59.475 C 350.016 59.793 348.501 60.174 346.429 60.617 C 344.357 61.060 343.002 61.494 342.365 61.919 C 341.390 62.609 340.903 63.486 340.903 64.549 C 340.903 65.594 341.293 66.497 342.072 67.259 C 342.852 68.020 343.843 68.401 345.048 68.401 C 346.394 68.401 347.678 67.958 348.900 67.072 C 349.803 66.399 350.396 65.576 350.680 64.602 C 350.875 63.964 350.972 62.751 350.972 60.962 M 342.790 50.681 C 342.046 51.195 341.444 52.107 340.983 53.417 C 338.725 53.010 336.467 52.603 334.209 52.195 C 334.970 49.468 336.281 47.449 338.141 46.138 C 340.000 44.828 342.763 44.172 346.429 44.172 C 349.759 44.172 352.238 44.571 353.868 45.368 C 355.497 46.147 356.640 47.148 357.295 48.370 C 357.968 49.574 358.304 51.797 358.304 55.038 C 358.277 57.943 358.251 60.847 358.225 63.752 C 358.225 66.231 358.340 68.064 358.570 69.251 C 358.818 70.420 359.270 71.677 359.925 73.023 C 357.463 73.023 355.001 73.023 352.539 73.023 C 352.345 72.527 352.106 71.793 351.822 70.818 C 351.698 70.376 351.610 70.083 351.556 69.942 C 350.281 71.181 348.918 72.111 347.465 72.731 C 346.013 73.351 344.463 73.661 342.816 73.661 C 339.912 73.661 337.618 72.873 335.936 71.296 C 334.271 69.720 333.438 67.728 333.438 65.319 C 333.438 63.725 333.819 62.308 334.581 61.069 C 335.342 59.811 336.405 58.855 337.769 58.199 C 339.150 57.526 341.134 56.942 343.720 56.446 C 347.209 55.791 349.626 55.180 350.972 54.613 C 350.972 54.365 350.972 54.117 350.972 53.869 C 350.972 52.434 350.618 51.416 349.909 50.814 C 349.201 50.194 347.864 49.884 345.898 49.884 C 344.570 49.884 343.534 50.150 342.790 50.681 Z"/>
<path id="S13" fill="#ffeecb" fill-rule="evenodd" stroke="#ffeecb" stroke-width="1" stroke-linecap="round" stroke-linejoin="round" d="M 364.574 44.810 C 366.868 44.810 369.161 44.810 371.455 44.810 C 371.455 46.094 371.455 47.378 371.455 48.662 C 373.917 45.669 376.848 44.172 380.248 44.172 C 382.055 44.172 383.622 44.544 384.950 45.288 C 386.279 46.032 387.368 47.157 388.218 48.662 C 389.458 47.157 390.795 46.032 392.230 45.288 C 393.664 44.544 395.196 44.172 396.826 44.172 C 398.898 44.172 400.651 44.597 402.086 45.447 C 403.520 46.280 404.592 47.511 405.300 49.140 C 405.814 50.344 406.071 52.293 406.071 54.985 C 406.070 60.998 406.070 67.011 406.071 73.023 C 403.582 73.023 401.094 73.023 398.605 73.023 C 398.605 67.648 398.605 62.273 398.605 56.898 C 398.605 54.099 398.349 52.293 397.835 51.478 C 397.144 50.415 396.082 49.884 394.647 49.884 C 393.602 49.884 392.619 50.203 391.698 50.840 C 390.777 51.478 390.113 52.417 389.706 53.657 C 389.299 54.879 389.095 56.818 389.095 59.475 C 389.095 63.991 389.095 68.507 389.095 73.023 C 386.606 73.023 384.118 73.023 381.630 73.023 C 381.629 67.870 381.629 62.716 381.630 57.562 C 381.630 54.817 381.497 53.045 381.231 52.248 C 380.966 51.451 380.549 50.858 379.983 50.468 C 379.434 50.079 378.681 49.884 377.724 49.884 C 376.573 49.884 375.537 50.194 374.616 50.814 C 373.695 51.434 373.031 52.328 372.624 53.497 C 372.234 54.666 372.039 56.605 372.039 59.315 C 372.039 63.885 372.039 68.454 372.039 73.023 C 369.551 73.023 367.062 73.023 364.574 73.023 C 364.574 63.619 364.574 54.215 364.574 44.810 Z"/>
<path id="S14" fill="#ffeecb" fill-rule="evenodd" stroke="#ffeecb" stroke-width="1" stroke-linecap="round" stroke-linejoin="round" d="M 421.957 52.195 C 420.753 53.594 420.151 55.676 420.151 58.438 C 420.151 61.609 420.780 63.955 422.037 65.478 C 423.294 66.984 424.827 67.737 426.633 67.737 C 428.369 67.737 429.812 67.046 430.963 65.665 C 432.115 64.265 432.690 61.981 432.690 58.810 C 432.690 55.853 432.097 53.656 430.910 52.222 C 429.724 50.787 428.254 50.070 426.500 50.070 C 424.676 50.070 423.162 50.778 421.957 52.195 M 412.766 83.756 C 412.766 70.774 412.765 57.792 412.766 44.810 C 415.086 44.810 417.406 44.810 419.726 44.810 C 419.726 46.192 419.726 47.573 419.726 48.954 C 420.629 47.537 421.851 46.386 423.392 45.501 C 424.933 44.615 426.642 44.172 428.519 44.172 C 431.796 44.172 434.577 45.456 436.861 48.024 C 439.146 50.592 440.288 54.170 440.288 58.757 C 440.288 63.468 439.137 67.134 436.835 69.756 C 434.532 72.359 431.743 73.661 428.466 73.661 C 426.908 73.661 425.491 73.351 424.216 72.731 C 422.958 72.111 421.630 71.048 420.231 69.543 C 420.230 74.281 420.231 79.018 420.231 83.756 C 417.742 83.756 415.254 83.756 412.766 83.756 Z"/>
<path id="S15" fill="#ffeecb" fill-rule="evenodd" stroke="#ffeecb" stroke-width="1" stroke-linecap="round" stroke-linejoin="round" d="M 445.681 73.023 C 445.681 60.041 445.681 47.059 445.681 34.077 C 448.170 34.077 450.658 34.077 453.146 34.077 C 453.146 47.059 453.146 60.041 453.146 73.023 C 450.658 73.023 448.170 73.023 445.681 73.023 Z"/>
<path id="S16" fill="#ffeecb" fill-rule="evenodd" stroke="#ffeecb" stroke-width="1" stroke-linecap="round" stroke-linejoin="round" d="M 465.872 56.499 C 469.591 56.499 473.310 56.499 477.029 56.499 C 476.976 54.338 476.418 52.700 475.356 51.584 C 474.293 50.451 473.000 49.884 471.477 49.884 C 469.848 49.884 468.502 50.477 467.439 51.664 C 466.376 52.851 465.854 54.462 465.872 56.499 M 474.798 67.126 C 475.595 66.488 476.197 65.461 476.604 64.044 C 479.084 64.460 481.563 64.876 484.043 65.293 C 483.087 68.020 481.572 70.101 479.500 71.536 C 477.446 72.953 474.869 73.661 471.769 73.661 C 466.863 73.661 463.233 72.058 460.877 68.852 C 459.018 66.284 458.088 63.043 458.088 59.129 C 458.088 54.453 459.310 50.796 461.754 48.157 C 464.198 45.501 467.289 44.172 471.026 44.172 C 475.223 44.172 478.535 45.563 480.961 48.343 C 483.388 51.106 484.548 55.348 484.441 61.069 C 478.207 61.069 471.973 61.069 465.739 61.069 C 465.792 63.282 466.394 65.009 467.545 66.249 C 468.696 67.471 470.131 68.082 471.849 68.082 C 473.018 68.082 474.001 67.763 474.798 67.126 Z"/>
<path id="S17" fill="#ffeecb" fill-rule="evenodd" stroke="#ffeecb" stroke-width="1" stroke-linecap="round" stroke-linejoin="round" d="M 490.127 73.023 C 490.127 60.041 490.127 47.059 490.127 34.077 C 492.677 34.078 495.227 34.078 497.778 34.077 C 503.091 42.747 508.404 51.416 513.718 60.086 C 513.717 51.416 513.717 42.747 513.718 34.077 C 516.153 34.078 518.588 34.077 521.023 34.077 C 521.023 47.059 521.023 60.041 521.023 73.023 C 518.393 73.023 515.763 73.023 513.133 73.023 C 507.899 64.558 502.666 56.092 497.432 47.626 C 497.432 56.092 497.432 64.558 497.432 73.023 C 494.997 73.023 492.562 73.023 490.127 73.023 Z"/>
<path id="S18" fill="#ffeecb" fill-rule="evenodd" stroke="#ffeecb" stroke-width="1" stroke-linecap="round" stroke-linejoin="round" d="M 544.322 60.962 C 544.322 60.466 544.322 59.971 544.322 59.475 C 543.366 59.793 541.851 60.174 539.779 60.617 C 537.707 61.060 536.352 61.493 535.715 61.919 C 534.740 62.609 534.254 63.486 534.254 64.549 C 534.253 65.594 534.643 66.497 535.422 67.259 C 536.202 68.020 537.193 68.401 538.398 68.401 C 539.744 68.401 541.028 67.958 542.250 67.072 C 543.153 66.399 543.747 65.576 544.030 64.602 C 544.225 63.964 544.322 62.751 544.322 60.962 M 536.140 50.681 C 535.396 51.195 534.794 52.107 534.333 53.417 C 532.075 53.010 529.817 52.603 527.559 52.195 C 528.320 49.468 529.631 47.449 531.490 46.138 C 533.350 44.828 536.113 44.172 539.779 44.172 C 543.109 44.172 545.588 44.571 547.218 45.368 C 548.847 46.147 549.990 47.148 550.645 48.370 C 551.318 49.574 551.654 51.797 551.654 55.038 C 551.628 57.943 551.601 60.847 551.575 63.752 C 551.575 66.231 551.690 68.064 551.920 69.251 C 552.168 70.420 552.620 71.677 553.275 73.023 C 550.813 73.023 548.351 73.023 545.890 73.023 C 545.695 72.527 545.455 71.793 545.172 70.818 C 545.048 70.376 544.960 70.083 544.907 69.942 C 543.631 71.181 542.268 72.111 540.815 72.731 C 539.363 73.351 537.813 73.661 536.166 73.661 C 533.262 73.661 530.968 72.873 529.286 71.296 C 527.621 69.720 526.788 67.728 526.788 65.319 C 526.788 63.725 527.169 62.308 527.931 61.069 C 528.692 59.811 529.755 58.855 531.119 58.199 C 532.500 57.526 534.484 56.942 537.069 56.446 C 540.559 55.791 542.976 55.180 544.322 54.613 C 544.322 54.365 544.322 54.117 544.322 53.869 C 544.322 52.434 543.968 51.416 543.260 50.814 C 542.551 50.194 541.214 49.884 539.248 49.884 C 537.920 49.884 536.884 50.150 536.140 50.681 Z"/>
<path id="S19" fill="#ffeecb" fill-rule="evenodd" stroke="#ffeecb" stroke-width="1" stroke-linecap="round" stroke-linejoin="round" d="M 557.924 44.810 C 560.218 44.810 562.511 44.810 564.805 44.810 C 564.805 46.094 564.805 47.378 564.805 48.662 C 567.267 45.669 570.198 44.172 573.598 44.172 C 575.405 44.172 576.972 44.544 578.301 45.288 C 579.629 46.032 580.718 47.157 581.568 48.662 C 582.808 47.157 584.145 46.032 585.580 45.288 C 587.014 44.544 588.546 44.172 590.176 44.172 C 592.248 44.172 594.001 44.597 595.436 45.447 C 596.870 46.280 597.942 47.511 598.650 49.140 C 599.164 50.344 599.421 52.293 599.421 54.985 C 599.420 60.998 599.420 67.011 599.421 73.023 C 596.932 73.023 594.444 73.023 591.956 73.023 C 591.955 67.648 591.955 62.273 591.956 56.898 C 591.956 54.099 591.699 52.293 591.185 51.478 C 590.494 50.415 589.432 49.884 587.997 49.884 C 586.952 49.884 585.969 50.203 585.048 50.840 C 584.127 51.478 583.463 52.417 583.056 53.657 C 582.648 54.879 582.445 56.818 582.445 59.475 C 582.444 63.991 582.444 68.507 582.445 73.023 C 579.956 73.023 577.468 73.023 574.980 73.023 C 574.980 67.870 574.979 62.716 574.980 57.562 C 574.980 54.817 574.847 53.045 574.581 52.248 C 574.316 51.451 573.899 50.858 573.333 50.468 C 572.784 50.079 572.031 49.884 571.074 49.884 C 569.923 49.884 568.887 50.194 567.966 50.814 C 567.045 51.434 566.381 52.328 565.974 53.497 C 565.584 54.666 565.389 56.605 565.389 59.315 C 565.389 63.885 565.389 68.454 565.389 73.023 C 562.901 73.023 560.412 73.023 557.924 73.023 C 557.924 63.619 557.924 54.214 557.924 44.810 Z"/>
<path id="S20" fill="#ffeecb" fill-rule="evenodd" stroke="#ffeecb" stroke-width="1" stroke-linecap="round" stroke-linejoin="round" d="M 611.934 56.499 C 615.653 56.499 619.372 56.499 623.091 56.499 C 623.038 54.338 622.480 52.700 621.418 51.584 C 620.355 50.451 619.062 49.884 617.539 49.884 C 615.910 49.884 614.563 50.477 613.501 51.664 C 612.438 52.851 611.916 54.462 611.934 56.499 M 620.860 67.126 C 621.657 66.488 622.259 65.461 622.666 64.044 C 625.146 64.460 627.625 64.876 630.105 65.293 C 629.148 68.020 627.634 70.101 625.562 71.536 C 623.508 72.953 620.931 73.661 617.831 73.661 C 612.925 73.661 609.295 72.058 606.939 68.852 C 605.079 66.284 604.150 63.043 604.150 59.129 C 604.150 54.453 605.372 50.796 607.816 48.157 C 610.260 45.501 613.350 44.172 617.087 44.172 C 621.285 44.172 624.597 45.563 627.023 48.343 C 629.450 51.106 630.610 55.348 630.503 61.069 C 624.269 61.069 618.035 61.069 611.801 61.069 C 611.854 63.282 612.456 65.009 613.607 66.249 C 614.758 67.471 616.193 68.082 617.911 68.082 C 619.080 68.082 620.063 67.763 620.860 67.126 Z"/>
</g>
</svg>
