<svg width="100" height="100" viewBox="0 0 100 100" fill="none" xmlns="http://www.w3.org/2000/svg">
<g clip-path="url(#clip0_51_27)">
<path fill-rule="evenodd" clip-rule="evenodd" d="M98.2405 26.0888C95.3603 40.7869 92.4771 55.4875 89.596 70.1846C91.539 76.2683 93.4812 82.3529 95.4231 88.4373C85.9871 88.4375 76.5506 88.4377 67.1139 88.4379C46.8511 88.4386 26.5871 88.4391 6.32409 88.4382C4.21594 83.8263 2.10706 79.2152 0 74.6036C5.44568 68.493 10.8821 62.3889 16.3203 56.2836C31.9594 59.2998 47.6047 62.3166 63.2346 65.3327C54.4477 58.8379 45.6608 52.3436 36.8729 45.8481C37.3818 30.5621 37.8799 15.282 38.3851 0C58.3462 8.68614 78.2907 17.3934 98.2405 26.0888ZM8.75589 93.7591C15.748 93.759 22.7405 93.7588 29.7332 93.7586C41.1282 93.7582 52.5237 93.7581 63.9179 93.7579C62.3417 96.6506 60.7589 99.5476 59.1803 102.442C43.7252 102.492 28.2542 102.55 12.7935 102.604C11.4489 99.6554 10.1027 96.7071 8.75589 93.7591ZM65.3201 93.7579C75.9219 93.7579 86.5228 93.7581 97.1214 93.7588C98.0809 96.7652 99.0404 99.7716 100 102.778C90.9642 102.801 81.9202 102.826 72.8814 102.85C70.3646 99.8177 67.8412 96.788 65.3201 93.7579Z" fill="white"/>
</g>
<defs>
<clipPath id="clip0_51_27">
<rect width="100" height="100" fill="white"/>
</clipPath>
</defs>
</svg>
