<svg width="100" height="100" viewBox="0 0 100 100" fill="none" xmlns="http://www.w3.org/2000/svg">
<path fill-rule="evenodd" clip-rule="evenodd" d="M91 76.7593C90.9984 76.7613 74.8724 97.2447 74.871 97.2467C74.867 97.2463 34.7012 93.5215 34.6972 93.5212C34.6946 93.5183 9.307 64.7915 9.30463 64.7888C9.30445 64.7864 9 41.0259 9 41.0235C9.00237 41.0248 33.2663 54.478 33.2686 54.4793C33.2721 54.4793 68.0197 53.5702 68.0232 53.57C68.0195 53.5693 31.1355 46.1738 31.1318 46.1731C31.1307 46.1695 19.8574 10.4676 19.8563 10.4639C19.8589 10.463 44.6362 2.00073 44.6386 2C44.6431 2 89.9771 3.30466 89.9816 3.30484C89.9818 3.31213 90.9998 76.752 91 76.7593Z" fill="white"/>
</svg>
